<!--?xml version="1.0" standalone="no"?-->
              <svg id="sw-js-blob-svg" viewBox="0 0 100 100" xmlns="http://www.w3.org/2000/svg" version="1.1">
                    <defs> 
                        <linearGradient id="sw-gradient" x1="0" x2="1" y1="1" y2="0">
                            <stop id="stop1" stop-color="rgba(36.606, 34.213, 33.08, 1)" offset="0%"></stop>
                            <stop id="stop2" stop-color="rgba(25.814, 189.496, 198.258, 1)" offset="100%"></stop>
                        </linearGradient>
                    </defs>
                <path fill="url(#sw-gradient)" d="M23.2,-26.7C29.2,-22.6,32.5,-14.5,35.1,-5.4C37.7,3.7,39.5,13.8,35.5,20.3C31.5,26.9,21.8,30,13.2,30.7C4.7,31.3,-2.7,29.4,-9.5,26.7C-16.3,23.9,-22.7,20.3,-27.1,14.7C-31.5,9,-34.1,1.3,-32.9,-5.9C-31.8,-13.1,-27,-19.8,-20.9,-23.9C-14.8,-28,-7.4,-29.6,0.6,-30.3C8.6,-31,17.2,-30.9,23.2,-26.7Z" width="100%" height="100%" transform="translate(50 50)" stroke-width="0" style="transition: all 0.3s ease 0s;" stroke="url(#sw-gradient)"></path>
              </svg>