<?xml version="1.0" encoding="UTF-8" standalone="no"?>
<svg
   xmlns:dc="http://purl.org/dc/elements/1.1/"
   xmlns:cc="http://creativecommons.org/ns#"
   xmlns:rdf="http://www.w3.org/1999/02/22-rdf-syntax-ns#"
   xmlns:svg="http://www.w3.org/2000/svg"
   xmlns="http://www.w3.org/2000/svg"
   id="svg10"
   preserveAspectRatio="xMidYMid meet"
   viewBox="0 0 225.000000 225.000000"
   height="225.000000pt"
   width="225.000000pt"
   version="1.0">
  <metadata
     id="metadata16">
    <rdf:RDF>
      <cc:Work
         rdf:about="">
        <dc:format>image/svg+xml</dc:format>
        <dc:type
           rdf:resource="http://purl.org/dc/dcmitype/StillImage" />
      </cc:Work>
    </rdf:RDF>
  </metadata>
  <defs
     id="defs14" />
  <g
     id="g8"
     stroke="none"
     fill="#000000"
     transform="translate(0.000000,225.000000) scale(0.100000,-0.100000)">
    <path
       id="path2"
       d="M1190 1557 c-60 -17 -106 -46 -155 -98 l-40 -43 38 32 c56 48 95 64 163 70 271 21 439 -341 287 -621 -61 -111 -171 -174 -287 -165 -68 6 -107 22 -163 70 -34 29 -34 27 7 -16 97 -102 234 -130 352 -73 64 32 145 113 177 179 51 106 65 250 36 363 -23 86 -50 138 -107 200 -84 92 -204 131 -308 102z" />
    <path
       id="path4"
       d="M630 1305 l0 -55 70 0 70 0 0 -180 0 -180 65 0 65 0 0 180 0 180 154 0 154 0 31 50 c17 28 31 52 31 55 0 3 -144 5 -320 5 l-320 0 0 -55z" />
    <path
       id="path6"
       d="M1289 1323 c-81 -133 -91 -146 -101 -129 -8 13 -27 16 -123 16 l-115 0 0 -160 0 -160 63 0 62 0 -3 130 c-2 71 1 130 5 130 4 0 32 -39 61 -85 29 -47 56 -85 60 -85 4 0 33 40 64 88 l58 87 0 -132 0 -133 65 0 65 0 0 235 0 235 -69 0 -69 0 -23 -37z" />
  </g>
</svg>
