<?xml version="1.0" standalone="no"?>
<!DOCTYPE svg PUBLIC "-//W3C//DTD SVG 20010904//EN"
 "http://www.w3.org/TR/2001/REC-SVG-20010904/DTD/svg10.dtd">
<svg version="1.0" xmlns="http://www.w3.org/2000/svg"
 width="512.000000pt" height="512.000000pt" viewBox="0 0 512.000000 512.000000"
 preserveAspectRatio="xMidYMid meet">

<g transform="translate(0.000000,512.000000) scale(0.100000,-0.100000)"
fill="#000000" stroke="none">
<path d="M2240 4844 c-213 -24 -392 -80 -545 -172 -93 -55 -216 -154 -283
-227 -147 -161 -264 -382 -307 -583 -5 -26 -11 -32 -23 -27 -42 17 -219 17
-302 1 -151 -31 -280 -95 -280 -140 0 -41 31 -40 120 3 145 70 261 83 492 55
45 -6 47 -5 54 23 55 242 110 367 234 532 164 218 419 377 700 437 61 13 128
18 235 18 107 0 174 -5 235 -18 448 -96 797 -426 914 -865 14 -52 31 -98 38
-103 7 -4 40 -8 74 -8 80 0 195 -30 282 -74 140 -71 250 -189 316 -339 43 -99
41 -97 94 -97 165 0 321 -102 395 -257 30 -64 32 -75 32 -178 0 -105 -2 -113
-34 -180 -44 -90 -120 -166 -208 -208 l-68 -32 -292 -3 -293 -3 0 202 c0 129
-4 216 -12 243 -16 55 -99 138 -154 154 -54 16 -731 17 -787 1 -51 -14 -115
-73 -141 -129 -19 -40 -21 -68 -24 -257 l-4 -213 -214 0 -214 0 0 28 c0 45
-47 128 -92 161 -66 49 -108 53 -499 49 l-356 -3 -49 -30 c-57 -35 -103 -104
-111 -164 l-6 -41 -166 0 c-190 0 -242 10 -366 69 -287 136 -439 456 -368 776
15 69 15 77 1 92 -24 24 -56 8 -68 -35 -36 -128 -38 -295 -5 -417 54 -198 203
-384 384 -478 126 -67 185 -79 396 -86 l190 -6 5 -315 c6 -351 5 -346 78 -412
66 -59 78 -61 487 -62 364 -1 371 -1 411 21 53 28 107 91 122 142 8 25 12 139
12 335 l0 296 214 0 214 0 4 -122 c4 -136 16 -175 72 -230 64 -65 72 -66 486
-70 l375 -3 48 23 c99 50 137 131 137 299 l0 103 273 0 c204 0 285 4 326 15
223 59 382 267 380 495 -2 239 -172 446 -409 496 -36 7 -74 14 -86 14 -15 0
-24 12 -37 48 -58 161 -233 333 -414 407 -65 26 -194 55 -246 55 l-34 0 -22
83 c-27 101 -101 258 -171 362 -181 269 -486 468 -808 529 -81 15 -272 27
-332 20z m1332 -2105 c29 -15 38 -28 38 -56 0 -39 -26 -54 -92 -51 -72 3 -88
-12 -88 -79 l0 -43 38 0 c53 0 82 -23 82 -66 0 -39 -24 -54 -85 -54 l-34 0 -3
-149 c-3 -142 -4 -151 -27 -175 -30 -32 -78 -34 -112 -7 -23 18 -24 25 -27
175 l-3 156 -32 0 c-44 0 -77 25 -77 57 0 39 27 63 72 63 37 0 38 1 38 35 0
114 43 185 123 204 51 12 158 6 189 -10z m-1472 -201 c87 -45 85 -31 88 -436
3 -410 1 -422 -71 -470 l-41 -27 -360 3 c-401 4 -409 5 -453 71 -23 34 -23 37
-23 392 0 371 2 393 43 438 45 49 59 50 427 51 339 0 347 0 390 -22z"/>
<path d="M1715 3921 c-75 -20 -137 -71 -165 -136 -15 -34 -18 -89 -24 -387 -4
-235 -2 -364 5 -398 14 -64 61 -127 119 -160 l45 -25 391 0 391 0 49 30 c30
19 60 49 79 79 l30 49 3 373 c2 235 -1 388 -7 412 -14 51 -71 115 -125 142
-42 20 -62 21 -403 25 -197 3 -371 1 -388 -4z m758 -98 c25 -11 47 -31 63 -59
l25 -42 -3 -364 -3 -365 -29 -37 c-49 -65 -55 -66 -443 -66 -327 0 -349 1
-387 20 -83 41 -81 27 -84 445 -2 337 -1 373 15 404 23 44 61 72 109 80 20 3
185 5 368 3 283 -2 336 -5 369 -19z"/>
<path d="M355 3596 c-34 -36 -95 -124 -95 -137 0 -13 30 -39 45 -39 13 0 135
153 135 170 0 12 -29 40 -42 40 -6 0 -25 -15 -43 -34z"/>
<path d="M2745 1696 c-231 -53 -420 -236 -479 -463 -20 -78 -21 -240 -1 -318
45 -175 176 -337 336 -413 112 -53 174 -67 294 -65 245 3 453 136 565 361 84
170 79 402 -12 575 -70 132 -222 259 -368 307 -83 28 -249 36 -335 16z m270
-81 c159 -41 302 -155 368 -295 49 -104 61 -164 55 -279 -13 -242 -168 -437
-403 -507 -80 -24 -220 -24 -300 0 -189 56 -342 210 -390 391 -20 78 -19 226
1 296 56 192 218 349 407 395 72 17 192 17 262 -1z"/>
</g>
</svg>
